<?xml version="1.0" encoding="UTF-8"?>
<!DOCTYPE svg PUBLIC "-//W3C//DTD SVG 1.1//EN" "http://www.w3.org/Graphics/SVG/1.1/DTD/svg11.dtd">
<!-- Creator: CorelDRAW X7.4 EN Portable -->
<svg xmlns="http://www.w3.org/2000/svg" xml:space="preserve" width="9.6093mm" height="9.6877mm" version="1.1" style="shape-rendering:geometricPrecision; text-rendering:geometricPrecision; image-rendering:optimizeQuality; fill-rule:evenodd; clip-rule:evenodd"
viewBox="0 0 257 259"
 xmlns:xlink="http://www.w3.org/1999/xlink">
 <defs>
  <style type="text/css">
   <![CDATA[
    .fil0 {fill:#009933}
    .fil2 {fill:#00B223}
    .fil1 {fill:white}
   ]]>
  </style>
 </defs>
 <g id="Layer_x0020_1">
  <metadata id="CorelCorpID_0Corel-Layer"/>
  <g id="_243960808">
   <path class="fil0" d="M122 0c-68,3 -122,60 -122,129 0,21 5,40 14,58l-14 66c0,3 3,7 6,6l65 -16c17,9 36,13 55,14 70,1 128,-55 131,-125 2,-74 -60,-135 -135,-132z"/>
   <path class="fil1" d="M199 199c-19,19 -44,30 -71,30 -15,0 -30,-4 -44,-11l-9 -4 -40 9 8 -40 -4 -9c-7,-14 -11,-30 -11,-46 0,-26 10,-52 29,-71 19,-19 45,-29 71,-29 27,0 52,10 71,29 19,19 30,45 30,71 0,27 -11,53 -30,71z"/>
   <circle class="fil2" cx="128" cy="128" r="71"/>
  </g>
 </g>
</svg>
